<?xml version="1.0" standalone="no"?><!DOCTYPE svg PUBLIC "-//W3C//DTD SVG 1.1//EN" "http://www.w3.org/Graphics/SVG/1.1/DTD/svg11.dtd"><svg t="1528944474617" class="icon" style="" viewBox="0 0 1024 1024" version="1.1" xmlns="http://www.w3.org/2000/svg" p-id="5095" xmlns:xlink="http://www.w3.org/1999/xlink" width="200" height="200"><defs><style type="text/css"></style></defs><path d="M940.032 671.744c45.056 0 81.92 36.864 81.92 81.92V942.08c0 45.056-36.864 81.92-81.92 81.92C421.888 1024 1.024 601.088 1.024 81.92c0-45.056 36.864-81.92 81.92-81.92h187.392c45.056 0 81.92 36.864 81.92 81.92 0 62.464 10.24 123.904 28.672 183.296 9.216 29.696 2.048 62.464-20.48 83.968L276.48 460.8c70.656 133.12 152.576 215.04 285.696 286.72l114.688-87.04c19.456-19.456 52.224-26.624 80.896-17.408 58.368 19.456 119.808 28.672 182.272 28.672z" p-id="5096"></path></svg>